<svg width="40" height="40" viewBox="0 0 40 40" fill="none" xmlns="http://www.w3.org/2000/svg">
<path d="M6.66675 6.66663H10.1052C10.8551 6.66663 11.2301 6.66663 11.5014 6.87842C11.7726 7.09022 11.8636 7.45399 12.0455 8.18155L12.576 10.3034C12.9397 11.7586 13.1216 12.4861 13.6641 12.9097C14.2067 13.3333 14.9566 13.3333 16.4565 13.3333H16.6667" stroke="#333333" stroke-width="2" stroke-linecap="round"/>
<path d="M30 28.3334H12.5848C11.4981 28.3334 10.9548 28.3334 10.6585 28.018C10.5993 27.955 10.5485 27.8845 10.5074 27.8083C10.3019 27.4276 10.4737 26.9121 10.8174 25.8812V25.8812C11.1961 24.7449 11.3855 24.1768 11.8044 23.8167C11.891 23.7423 11.9837 23.6755 12.0816 23.6169C12.5558 23.3334 13.1546 23.3334 14.3523 23.3334H23.3333" stroke="#333333" stroke-width="2" stroke-linecap="round" stroke-linejoin="round"/>
<path d="M27.0973 23.3334H15.0277C14.05 23.3334 13.2156 22.6265 13.0549 21.6622L11.9578 15.08C11.8055 14.1657 12.5105 13.3334 13.4374 13.3334H31.7154C32.4588 13.3334 32.9423 14.1157 32.6098 14.7806L28.8862 22.2278C28.5474 22.9054 27.8549 23.3334 27.0973 23.3334Z" stroke="#333333" stroke-width="2" stroke-linecap="round"/>
<circle cx="28.3334" cy="33.3333" r="1.66667" fill="#333333"/>
<ellipse cx="14.9999" cy="33.3333" rx="1.66667" ry="1.66667" fill="#333333"/>
</svg>
